<mxfile host="app.diagrams.net" modified="2024-01-10T09:09:57.370Z" agent="Mozilla/5.0 (Windows NT 10.0; Win64; x64) AppleWebKit/537.36 (KHTML, like Gecko) Chrome/120.0.0.0 Safari/537.36" version="22.1.17" etag="upfR3qk0ZEnEOLATDcYe" type="github">
  <diagram name="第 1 页" id="B0W3JR8AoADUTEzf3Xl4">
    <mxGraphModel>
      <root>
        <mxCell id="0" />
        <mxCell id="1" parent="0" />
      </root>
    </mxGraphModel>
  </diagram>
</mxfile>
